<?xml version="1.0" encoding="UTF-8"?>
<svg id="Ebene_1" data-name="Ebene 1" xmlns="http://www.w3.org/2000/svg" viewBox="0 0 645.31 172.4">
  <defs>
    <style>
      .cls-1 {
        fill: #fff;
      }
    </style>
  </defs>
  <path class="cls-1" d="M36.29,87.58h12.84l35.93,83.41h-16.96l-7.78-19.09H24.15l-7.54,19.09H0l36.29-83.41ZM55.13,139.18l-12.84-33.93-13.08,33.93h25.92Z"/>
  <path class="cls-1" d="M122.56,130.11c-2.71-3.77-6.24-5.77-11.07-5.77-3.77,0-8.25,1.77-8.25,6.01,0,10.13,30.51,1.88,30.51,23.92,0,13.43-12.84,18.14-24.39,18.14-8.72,0-16.26-2.24-22.03-8.72l9.42-8.84c3.65,4.01,7.42,6.95,13.43,6.95,4.12,0,9.42-2,9.42-6.48,0-11.66-30.51-2.48-30.51-24.03,0-12.6,11.31-18.26,22.74-18.26,7.54,0,15.55,2.35,20.15,8.6l-9.42,8.48Z"/>
  <path class="cls-1" d="M137.64,126.46v-12.02h11.66v-16.38h14.14v16.38h15.55v12.02h-15.55v24.74c0,5.65,1.65,9.19,7.89,9.19,2.48,0,5.89-.47,7.66-1.77v11.9c-2.95,1.41-7.89,1.88-11.19,1.88-14.96,0-18.49-6.72-18.49-20.03v-25.92h-11.66Z"/>
  <path class="cls-1" d="M187.63,114.44h14.14v8.95h.24c3.06-6.48,9.31-10.37,16.73-10.37,1.77,0,3.42.35,5.07.82v13.66c-2.36-.59-4.59-1.06-6.83-1.06-13.31,0-15.2,11.19-15.2,14.25v30.28h-14.14v-56.55Z"/>
  <path class="cls-1" d="M257.3,113.03c17.08,0,30.75,11.9,30.75,29.69s-13.67,29.69-30.75,29.69-30.75-11.9-30.75-29.69,13.67-29.69,30.75-29.69ZM257.3,159.68c10.37,0,16.61-8.13,16.61-16.96s-6.24-16.96-16.61-16.96-16.61,8.13-16.61,16.96,6.24,16.96,16.61,16.96Z"/>
  <path class="cls-1" d="M296.65,87.58h14.84v69.98h35.46v13.43h-50.3v-83.41Z"/>
  <path class="cls-1" d="M364.2,147.66c.94,8.36,7.3,13.43,15.2,13.43,7.07,0,11.66-3.3,15.2-7.66l10.13,7.66c-6.6,8.13-14.96,11.31-23.92,11.31-17.08,0-30.75-11.9-30.75-29.69s13.67-29.69,30.75-29.69c15.79,0,26.51,11.07,26.51,30.75v3.89h-43.12ZM393.18,137.06c-.12-8.25-5.54-13.43-14.37-13.43-8.36,0-13.55,5.3-14.61,13.43h28.98Z"/>
  <path class="cls-1" d="M416.66,114.44h13.43v9.07h.23c2.59-5.65,7.89-10.48,17.32-10.48,15.2,0,20.62,10.72,20.62,22.26v35.7h-14.14v-28.63c0-6.24-.47-16.61-10.37-16.61-9.31,0-12.96,6.83-12.96,14.37v30.87h-14.14v-56.55Z"/>
  <path class="cls-1" d="M510.6,130.11c-2.71-3.77-6.24-5.77-11.07-5.77-3.77,0-8.25,1.77-8.25,6.01,0,10.13,30.51,1.88,30.51,23.92,0,13.43-12.84,18.14-24.39,18.14-8.72,0-16.26-2.24-22.03-8.72l9.42-8.84c3.65,4.01,7.42,6.95,13.43,6.95,4.12,0,9.42-2,9.42-6.48,0-11.66-30.51-2.48-30.51-24.03,0-12.6,11.31-18.26,22.74-18.26,7.54,0,15.55,2.35,20.15,8.6l-9.42,8.48Z"/>
  <path class="cls-1" d="M569.62,151.36h0c0-41.8-33.88-75.68-75.68-75.68h0c41.8,0,75.68-33.88,75.68-75.68h0c0,41.8,33.88,75.68,75.68,75.68h0c-41.8,0-75.68,33.88-75.68,75.68Z"/>
</svg>